# xmcd
#
# Track frame offsets: 
#        150
#        25265
#        43160
#        58362
#        72317
#        90760
#        108292
#        127967
#        155867
#        177820
#
# Disc length: 2593 seconds
#
# Revision: 2
# Processed by: cddbd v1.5.2PL0 Copyright (c) Steve Scherf et al.
# Submitted via: ExactAudioCopyFreeDBPlugin 1.0
#
DISCID=830a1f0a
DTITLE=The Isley Brothers - 3 and 3 (Three and Three =One Sly and Wicked Ja
DTITLE=m)
DYEAR=1973
DGENRE=Soul
TTITLE0=That Lady
TTITLE1=Don't Let Me Be Lonely Tonight
TTITLE2=If You Were There
TTITLE3=You Walk Your Way
TTITLE4=Listen to the Music
TTITLE5=What it Comes Down To
TTITLE6=Sunshine (Go Away Today)
TTITLE7=Summer Breeze
TTITLE8=The Highway of My Life
TTITLE9=That Lady (live)
EXTD=YEAR: 2003
EXTT0=
EXTT1=
EXTT2=
EXTT3=
EXTT4=
EXTT5=
EXTT6=
EXTT7=
EXTT8=
EXTT9=
PLAYORDER=
